grf
version=1
nRows=61
nColumns=19
inDegrees=yes
endheader
time	ground_force_2_vx	ground_force_2_vy	ground_force_2_vz	ground_force_2_px	ground_force_2_py	ground_force_2_pz	ground_moment_2_mx	ground_moment_2_my	ground_moment_2_mz	ground_force_3_vx	ground_force_3_vy	ground_force_3_vz	ground_force_3_px	ground_force_3_py	ground_force_3_pz	ground_moment_3_mx	ground_moment_3_my	ground_moment_3_mz
0.435000	0.000000	0.000000	0.000000	-0.284564	0.000000	0.142297	0.000000	0.000000	0.000000	36.455743	367.743154	-23.782348	-0.936712	0.000000	0.291874	0.000000	0.899394	-0.000000
0.436000	0.000000	0.000000	0.000000	-0.281604	0.000000	0.139593	0.000000	0.000000	0.000000	37.144805	368.827089	-23.914463	-0.936641	0.000000	0.291845	0.000000	0.904557	-0.000000
0.437000	0.000000	0.000000	0.000000	-0.278759	0.000000	0.136993	0.000000	0.000000	0.000000	37.840260	369.911780	-24.045943	-0.936567	0.000000	0.291814	0.000000	0.909596	-0.000000
0.438000	0.000000	0.000000	0.000000	-0.275864	0.000000	0.134348	0.000000	0.000000	0.000000	38.542062	370.996697	-24.176689	-0.936490	0.000000	0.291781	0.000000	0.914512	-0.000000
0.439000	0.000000	0.000000	0.000000	-0.272742	0.000000	0.131495	0.000000	0.000000	0.000000	39.250156	372.081292	-24.306598	-0.936407	0.000000	0.291745	0.000000	0.919304	-0.000000
0.440000	0.000000	0.000000	0.000000	-0.269157	0.000000	0.128220	0.000000	0.000000	0.000000	39.964482	373.165001	-24.435567	-0.936319	0.000000	0.291705	0.000000	0.923972	-0.000000
0.441000	0.000000	0.000000	0.000000	-0.264734	0.000000	0.124179	0.000000	0.000000	0.000000	40.684974	374.247245	-24.563491	-0.936226	0.000000	0.291662	0.000000	0.928516	-0.000000
0.442000	0.000000	0.000000	0.000000	-0.258760	0.000000	0.118721	0.000000	0.000000	0.000000	41.411558	375.327426	-24.690267	-0.936130	0.000000	0.291617	0.000000	0.932936	-0.000000
0.443000	0.000000	0.000000	0.000000	-0.249632	0.000000	0.110381	0.000000	0.000000	0.000000	42.144154	376.404931	-24.815789	-0.936032	0.000000	0.291570	0.000000	0.937233	-0.000000
0.444000	0.000000	0.000000	0.000000	-0.232671	0.000000	0.094884	0.000000	0.000000	0.000000	42.882674	377.479132	-24.939949	-0.935935	0.000000	0.291521	0.000000	0.941405	-0.000000
0.445000	0.000000	0.000000	0.000000	-0.185628	0.000000	0.051902	0.000000	0.000000	0.000000	43.627024	378.549383	-25.062641	-0.935841	0.000000	0.291471	0.000000	0.945453	-0.000000
0.446000	0.000000	0.000000	0.000000	1.358949	-0.000000	-1.359329	0.000000	0.000000	0.000000	44.377101	379.615022	-25.183758	-0.935750	0.000000	0.291419	0.000000	0.949377	-0.000000
0.447000	0.000000	0.000000	0.000000	-0.386208	0.000000	0.235165	0.000000	0.000000	0.000000	45.132797	380.675372	-25.303190	-0.935663	0.000000	0.291366	0.000000	0.953178	-0.000000
0.448000	0.000000	0.000000	0.000000	-0.329811	0.000000	0.183638	0.000000	0.000000	0.000000	45.893993	381.729739	-25.420830	-0.935580	0.000000	0.291312	0.000000	0.956855	-0.000000
0.449000	0.000000	0.000000	0.000000	-0.311127	0.000000	0.166567	0.000000	0.000000	0.000000	46.660564	382.777413	-25.536568	-0.935502	0.000000	0.291257	0.000000	0.960410	-0.000000
0.450000	0.000000	0.000000	0.000000	-0.301400	0.000000	0.157680	0.000000	0.000000	0.000000	47.432377	383.817669	-25.650296	-0.935429	0.000000	0.291202	0.000000	0.963842	-0.000000
0.451000	0.000000	0.000000	0.000000	-0.295154	0.000000	0.151973	0.000000	0.000000	0.000000	48.209292	384.849767	-25.761904	-0.935361	0.000000	0.291147	0.000000	0.967152	-0.000000
0.452000	0.000000	0.000000	0.000000	-0.290588	0.000000	0.147801	0.000000	0.000000	0.000000	48.991158	385.872952	-25.871283	-0.935298	0.000000	0.291093	0.000000	0.970340	-0.000000
0.453000	0.000000	0.000000	0.000000	-0.286925	0.000000	0.144454	0.000000	0.000000	0.000000	49.777818	386.886452	-25.978324	-0.935238	0.000000	0.291041	0.000000	0.973407	-0.000000
0.454000	0.000000	0.000000	0.000000	-0.283761	0.000000	0.141563	0.000000	0.000000	0.000000	50.569106	387.889483	-26.082918	-0.935182	0.000000	0.290991	0.000000	0.976353	-0.000000
0.455000	0.000000	0.000000	0.000000	-0.280848	0.000000	0.138902	0.000000	0.000000	0.000000	51.364847	388.881244	-26.184955	-0.935131	0.000000	0.290943	0.000000	0.979178	-0.000000
0.456000	0.000000	0.000000	0.000000	-0.278005	0.000000	0.136305	0.000000	0.000000	0.000000	52.164857	389.860922	-26.284328	-0.935081	0.000000	0.290897	0.000000	0.981884	-0.000000
0.457000	0.000000	0.000000	0.000000	-0.275069	0.000000	0.133621	0.000000	0.000000	0.000000	52.968944	390.827690	-26.380929	-0.935032	0.000000	0.290853	0.000000	0.984470	-0.000000
0.458000	0.000000	0.000000	0.000000	-0.271851	0.000000	0.130682	0.000000	0.000000	0.000000	53.776908	391.780706	-26.474651	-0.934982	0.000000	0.290809	0.000000	0.986937	-0.000000
0.459000	0.000000	0.000000	0.000000	-0.268091	0.000000	0.127246	0.000000	0.000000	0.000000	54.588539	392.719117	-26.565385	-0.934931	0.000000	0.290765	0.000000	0.989285	-0.000000
0.460000	0.000000	0.000000	0.000000	-0.263348	0.000000	0.122913	0.000000	0.000000	0.000000	55.403619	393.642055	-26.653028	-0.934874	0.000000	0.290722	0.000000	0.991516	-0.000000
0.461000	0.000000	0.000000	0.000000	-0.256759	0.000000	0.116892	0.000000	0.000000	0.000000	56.221919	394.548643	-26.737472	-0.934811	0.000000	0.290680	0.000000	0.993629	-0.000000
0.462000	0.000000	0.000000	0.000000	-0.246258	0.000000	0.107298	0.000000	0.000000	0.000000	57.043204	395.437989	-26.818615	-0.934741	0.000000	0.290639	0.000000	0.995625	-0.000000
0.463000	0.000000	0.000000	0.000000	-0.225223	0.000000	0.088079	0.000000	0.000000	0.000000	57.867229	396.309192	-26.896353	-0.934663	0.000000	0.290599	0.000000	0.997505	-0.000000
0.464000	0.000000	0.000000	0.000000	-0.153884	0.000000	0.022899	0.000000	0.000000	0.000000	58.693738	397.161340	-26.970585	-0.934577	0.000000	0.290560	0.000000	0.999269	-0.000000
0.465000	0.000000	0.000000	0.000000	-0.776915	0.000000	0.592142	0.000000	0.000000	0.000000	59.522468	397.993509	-27.041209	-0.934483	0.000000	0.290522	0.000000	1.000917	-0.000000
0.466000	0.000000	0.000000	0.000000	-0.362342	0.000000	0.213360	0.000000	0.000000	0.000000	60.353147	398.804768	-27.108127	-0.934381	0.000000	0.290484	0.000000	1.002450	-0.000000
0.467000	0.000000	0.000000	0.000000	-0.323313	0.000000	0.177700	0.000000	0.000000	0.000000	61.185494	399.594175	-27.171240	-0.934276	0.000000	0.290446	0.000000	1.003869	-0.000000
0.468000	0.000000	0.000000	0.000000	-0.308031	0.000000	0.163738	0.000000	0.000000	0.000000	62.019219	400.360780	-27.230453	-0.934168	0.000000	0.290407	0.000000	1.005174	-0.000000
0.469000	0.000000	0.000000	0.000000	-0.299515	0.000000	0.155957	0.000000	0.000000	0.000000	62.854021	401.103626	-27.285670	-0.934060	0.000000	0.290366	0.000000	1.006364	-0.000000
0.470000	0.000000	0.000000	0.000000	-0.293826	0.000000	0.150760	0.000000	0.000000	0.000000	63.689594	401.821747	-27.336800	-0.933953	0.000000	0.290323	0.000000	1.007441	-0.000000
0.471000	0.000000	0.000000	0.000000	-0.289553	0.000000	0.146855	0.000000	0.000000	0.000000	64.525621	402.514172	-27.383752	-0.933851	0.000000	0.290275	0.000000	1.008405	-0.000000
0.472000	0.000000	0.000000	0.000000	-0.286053	0.000000	0.143657	0.000000	0.000000	0.000000	65.361776	403.179925	-27.426437	-0.933754	0.000000	0.290224	0.000000	1.009257	-0.000000
0.473000	0.000000	0.000000	0.000000	-0.282975	0.000000	0.140845	0.000000	0.000000	0.000000	66.197725	403.818022	-27.464767	-0.933662	0.000000	0.290169	0.000000	1.009995	-0.000000
0.474000	0.000000	0.000000	0.000000	-0.280097	0.000000	0.138215	0.000000	0.000000	0.000000	67.033126	404.427478	-27.498660	-0.933574	0.000000	0.290112	0.000000	1.010622	-0.000000
0.475000	0.000000	0.000000	0.000000	-0.277245	0.000000	0.135610	0.000000	0.000000	0.000000	67.867628	405.007301	-27.528031	-0.933489	0.000000	0.290054	0.000000	1.011136	-0.000000
0.476000	0.000000	0.000000	0.000000	-0.274255	0.000000	0.132878	0.000000	0.000000	0.000000	68.700872	405.556500	-27.552803	-0.933405	0.000000	0.289997	0.000000	1.011539	-0.000000
0.477000	0.000000	0.000000	0.000000	-0.270924	0.000000	0.129835	0.000000	0.000000	0.000000	69.532490	406.074079	-27.572896	-0.933322	0.000000	0.289942	0.000000	1.011830	-0.000000
0.478000	0.000000	0.000000	0.000000	-0.266958	0.000000	0.126210	0.000000	0.000000	0.000000	70.362109	406.559042	-27.588237	-0.933239	0.000000	0.289890	0.000000	1.012009	-0.000000
0.479000	0.000000	0.000000	0.000000	-0.261839	0.000000	0.121534	0.000000	0.000000	0.000000	71.189344	407.010393	-27.598754	-0.933156	0.000000	0.289841	0.000000	1.012077	-0.000000
0.480000	0.000000	0.000000	0.000000	-0.254502	0.000000	0.114831	0.000000	0.000000	0.000000	72.013806	407.427137	-27.604376	-0.933072	0.000000	0.289793	0.000000	1.012033	-0.000000
0.481000	0.000000	0.000000	0.000000	-0.242236	0.000000	0.103623	0.000000	0.000000	0.000000	72.835097	407.808278	-27.605039	-0.932989	0.000000	0.289747	0.000000	1.011878	-0.000000
0.482000	0.000000	0.000000	0.000000	-0.215295	0.000000	0.079008	0.000000	0.000000	0.000000	73.652812	408.152826	-27.600677	-0.932906	0.000000	0.289701	0.000000	1.011611	-0.000000
0.483000	0.000000	0.000000	0.000000	-0.090912	0.000000	-0.034637	0.000000	0.000000	0.000000	74.466540	408.459792	-27.591231	-0.932823	0.000000	0.289656	0.000000	1.011233	-0.000000
0.484000	0.000000	0.000000	0.000000	-0.495144	0.000000	0.334697	0.000000	0.000000	0.000000	75.275860	408.728192	-27.576643	-0.932739	0.000000	0.289610	0.000000	1.010743	-0.000000
0.485000	0.000000	0.000000	0.000000	-0.346984	0.000000	0.199328	0.000000	0.000000	0.000000	76.080350	408.957047	-27.556859	-0.932654	0.000000	0.289566	0.000000	1.010141	-0.000000
0.486000	0.000000	0.000000	0.000000	-0.318150	0.000000	0.172984	0.000000	0.000000	0.000000	76.879576	409.145384	-27.531828	-0.932567	0.000000	0.289525	0.000000	1.009428	-0.000000
0.487000	0.000000	0.000000	0.000000	-0.305364	0.000000	0.161302	0.000000	0.000000	0.000000	77.673103	409.292238	-27.501501	-0.932479	0.000000	0.289487	0.000000	1.008602	-0.000000
0.488000	0.000000	0.000000	0.000000	-0.297817	0.000000	0.154405	0.000000	0.000000	0.000000	78.460487	409.396652	-27.465836	-0.932390	0.000000	0.289452	0.000000	1.007664	-0.000000
0.489000	0.000000	0.000000	0.000000	-0.292594	0.000000	0.149633	0.000000	0.000000	0.000000	79.241281	409.457678	-27.424790	-0.932301	0.000000	0.289419	0.000000	1.006614	-0.000000
0.490000	0.000000	0.000000	0.000000	-0.288571	0.000000	0.145958	0.000000	0.000000	0.000000	80.015031	409.474378	-27.378327	-0.932214	0.000000	0.289388	0.000000	1.005450	-0.000000
0.491000	0.000000	0.000000	0.000000	-0.285209	0.000000	0.142886	0.000000	0.000000	0.000000	80.781279	409.445826	-27.326412	-0.932131	0.000000	0.289357	0.000000	1.004173	-0.000000
0.492000	0.000000	0.000000	0.000000	-0.282202	0.000000	0.140139	0.000000	0.000000	0.000000	81.539563	409.371108	-27.269015	-0.932050	0.000000	0.289325	0.000000	1.002783	-0.000000
0.493000	0.000000	0.000000	0.000000	-0.279347	0.000000	0.137530	0.000000	0.000000	0.000000	82.289417	409.249323	-27.206111	-0.931973	0.000000	0.289292	0.000000	1.001279	-0.000000
0.494000	0.000000	0.000000	0.000000	-0.276476	0.000000	0.134907	0.000000	0.000000	0.000000	83.030371	409.079585	-27.137675	-0.931899	0.000000	0.289257	0.000000	0.999660	-0.000000
0.495000	0.000000	0.000000	0.000000	-0.273417	0.000000	0.132113	0.000000	0.000000	0.000000	83.761952	408.861023	-27.063689	-0.931828	0.000000	0.289219	0.000000	0.997926	-0.000000
